<svg width="879" height="1171" viewBox="0 0 879 1171" fill="none" xmlns="http://www.w3.org/2000/svg">
<path fill-rule="evenodd" clip-rule="evenodd" d="M764.599 624.301C764.599 639.231 737.335 651.423 704.035 651.423H622.542L841.363 932.954C861.8 959.242 878.536 996.054 878.536 1014.75C878.536 1033.44 851.271 1048.76 817.972 1048.76H526.368C529.557 1056.09 531.376 1064.12 531.376 1072.59V1110.47C531.376 1143.77 504.133 1171 470.812 1171H407.702C374.403 1171 347.138 1143.77 347.138 1110.47V1072.59C347.138 1064.12 348.979 1056.09 352.146 1048.76H60.5635C27.2428 1048.76 0 1033.44 0 1014.75C0 996.054 16.7138 959.242 37.1513 932.954L255.972 651.423H174.5C141.179 651.423 113.936 639.231 113.936 624.301C113.936 609.371 131.913 576.687 153.87 551.64L354.864 322.492H280.176C246.877 322.492 219.612 312.225 219.612 299.67C219.612 287.135 235.513 254.73 254.923 227.693L403.935 20.2774C423.367 -6.75914 455.168 -6.75914 474.579 20.2774L623.591 227.693C643.022 254.751 658.902 287.135 658.902 299.691C658.902 312.225 631.659 322.492 598.338 322.492H523.65L724.666 551.64C746.622 576.687 764.599 609.371 764.599 624.301Z" fill="#3A6148"/>
</svg>
