<svg width="10368" height="2471" viewBox="0 0 10368 2471" fill="none" xmlns="http://www.w3.org/2000/svg">
<path d="M0.0078125 1661.53L644.257 1621.52C658.209 1725.25 686.609 1804.28 729.46 1858.61C799.216 1946.53 898.868 1990.49 1028.42 1990.49C1125.08 1990.49 1199.32 1968.27 1251.14 1923.81C1303.95 1878.37 1330.36 1826.01 1330.36 1766.74C1330.36 1710.43 1305.45 1660.05 1255.62 1615.6C1205.8 1571.14 1090.2 1529.16 908.833 1489.64C611.87 1423.46 400.11 1335.54 273.552 1225.88C145.998 1116.23 82.2206 976.444 82.2206 806.53C82.2206 694.901 114.608 589.693 179.381 490.906C245.151 391.131 343.309 313.089 473.853 256.78C605.393 199.484 785.265 170.835 1013.47 170.835C1293.49 170.835 1506.74 222.699 1653.23 326.425C1800.72 429.164 1888.41 593.15 1916.31 818.385L1278.04 855.43C1261.1 757.631 1225.23 686.504 1170.42 642.05C1116.61 597.596 1041.87 575.369 946.203 575.369C867.478 575.369 808.185 592.162 768.324 625.75C728.463 658.35 708.533 698.358 708.533 745.776C708.533 780.352 724.975 811.47 757.861 839.13C789.749 867.778 865.485 894.451 985.067 919.148C1281.03 982.372 1492.79 1046.58 1620.35 1111.78C1748.9 1175.99 1842.07 1256.01 1899.87 1351.84C1958.67 1447.66 1988.06 1554.84 1988.06 1673.39C1988.06 1812.68 1949.2 1941.1 1871.47 2058.66C1793.74 2176.21 1685.12 2265.62 1545.61 2326.86C1406.1 2387.12 1230.21 2417.25 1017.95 2417.25C645.254 2417.25 387.155 2346.13 243.657 2203.87C100.158 2061.62 18.9417 1880.84 0.0078125 1661.53Z" fill="#42433F"/>
<path d="M9757.18 207.771H10367V2380.1H9757.18V207.771Z" fill="#42433F"/>
<path d="M2168.44 806.531H2734.96V1062.88C2819.66 958.169 2905.36 883.585 2992.06 839.131C3078.76 793.689 3184.39 770.968 3308.95 770.968C3477.37 770.968 3608.91 820.855 3703.58 920.63C3799.24 1019.42 3847.08 1172.54 3847.08 1379.99L3847.08 2380.21H3235.71L3235.71 1514.83C3235.71 1416.05 3217.28 1346.4 3180.4 1305.9C3143.53 1264.41 3091.71 1243.66 3024.95 1243.66C2951.2 1243.66 2891.41 1271.32 2845.57 1326.65C2799.73 1381.97 2776.81 1481.25 2776.81 1624.49V2380.21H2168.44V806.531Z" fill="#42433F"/>
<path d="M5928.18 207.879H6542.54V960.637C6603.32 897.413 6672.08 849.995 6748.82 818.384C6826.54 786.772 6912.24 770.966 7005.92 770.966C7199.24 770.966 7359.18 840.117 7485.74 978.419C7612.3 1115.73 7675.58 1313.31 7675.58 1571.14C7675.58 1743.03 7646.68 1894.67 7588.88 2026.06C7531.08 2156.46 7450.86 2254.25 7348.22 2319.45C7246.58 2383.67 7133.47 2415.77 7008.91 2415.77C6902.28 2415.77 6804.62 2393.05 6715.93 2347.61C6649.16 2312.05 6576.42 2245.36 6497.69 2147.56V2380.21H5928.18V207.879ZM6538.05 1588.92C6538.05 1724.26 6563.46 1822.55 6614.29 1883.8C6666.1 1944.06 6731.38 1974.19 6810.1 1974.19C6882.85 1974.19 6943.63 1944.56 6992.46 1885.28C7042.29 1825.02 7067.2 1724.26 7067.2 1583C7067.2 1458.52 7042.79 1367.15 6993.96 1308.86C6946.13 1250.58 6887.83 1221.43 6819.07 1221.43C6736.36 1221.43 6668.59 1252.06 6615.78 1313.31C6563.96 1373.57 6538.05 1465.44 6538.05 1588.92Z" fill="#42433F"/>
<path d="M5178.51 291.629C5178.51 452.687 5048.02 583.251 4887.06 583.251C4726.1 583.251 4595.61 452.687 4595.61 291.629C4595.61 130.571 4726.1 0.0078125 4887.06 0.0078125C5048.02 0.0078125 5178.51 130.571 5178.51 291.629Z" fill="#42433F"/>
<path fill-rule="evenodd" clip-rule="evenodd" d="M4887.06 2470.08C5361.76 2470.08 5746.58 2085.24 5746.58 1610.52C5746.58 1135.79 5361.76 750.952 4887.06 750.952C4412.36 750.952 4027.53 1135.79 4027.53 1610.52C4027.53 2085.24 4412.36 2470.08 4887.06 2470.08ZM4887.04 1899.94C5045.28 1899.94 5173.55 1770.36 5173.55 1610.52C5173.55 1450.67 5045.28 1321.09 4887.04 1321.09C4728.81 1321.09 4600.54 1450.67 4600.54 1610.52C4600.54 1770.36 4728.81 1899.94 4887.04 1899.94Z" fill="#42433F"/>
<path fill-rule="evenodd" clip-rule="evenodd" d="M8716.05 2470.08C9190.76 2470.08 9575.58 2085.24 9575.58 1610.52C9575.58 1135.79 9190.76 750.949 8716.05 750.949C8241.35 750.949 7856.53 1135.79 7856.53 1610.52C7856.53 2085.24 8241.35 2470.08 8716.05 2470.08ZM8716.04 1899.94C8874.28 1899.94 9002.55 1770.36 9002.55 1610.52C9002.55 1450.67 8874.28 1321.09 8716.04 1321.09C8557.81 1321.09 8429.53 1450.67 8429.53 1610.52C8429.53 1770.36 8557.81 1899.94 8716.04 1899.94Z" fill="#42433F"/>
</svg>
